<svg xmlns="http://www.w3.org/2000/svg" viewBox="0 0 300 300"><defs><style>.cls-1{fill:#231f20;}</style></defs><title>roshan-users</title><g id="user"><path class="cls-1" d="M169.55,143.76l-.61-.47-.61.47a29.87,29.87,0,0,1-36.66,0l-.61-.47-.61.47c-17.19,13.08-29.2,42.52-29.2,71.59v1h97.5v-1C198.75,186.28,186.74,156.84,169.55,143.76Zm-66.3,70.59c.27-27.82,11.59-55.73,27.81-68.53a31.87,31.87,0,0,0,37.88,0c16.21,12.8,27.54,40.72,27.81,68.53Z"/><path class="cls-1" d="M150,140.65a28.5,28.5,0,1,0-28.5-28.5A28.53,28.53,0,0,0,150,140.65Zm0-55a26.5,26.5,0,1,1-26.5,26.5A26.53,26.53,0,0,1,150,85.65Z"/></g></svg>