<svg xmlns="http://www.w3.org/2000/svg" viewBox="0 0 300 300"><defs><style>.cls-1{fill:#231f20;}</style></defs><title>roshan-users</title><g id="users-chat"><path class="cls-1" d="M103.65,163.26A19.61,19.61,0,1,0,84,143.66,19.63,19.63,0,0,0,103.65,163.26Zm0-37.84a18.23,18.23,0,1,1-18.23,18.23A18.25,18.25,0,0,1,103.65,125.42Z"/><path class="cls-1" d="M90.62,166.82a21.93,21.93,0,0,0,26.06,0,38.18,38.18,0,0,1,7.47,8.11q.3-.75.62-1.48a38.31,38.31,0,0,0-7.67-8l-.42-.32-.42.33a20.55,20.55,0,0,1-25.22,0l-.42-.33-.42.32c-11.83,9-20.09,29.25-20.09,49.25v.69h45.14c0-.46,0-.92.08-1.38H71.49C71.67,194.83,79.47,175.63,90.62,166.82Z"/><rect class="cls-1" x="180.2" y="169.84" width="39.33" height="2"/><rect class="cls-1" x="180.2" y="179.84" width="39.33" height="2"/><rect class="cls-1" x="180.2" y="189.84" width="39.33" height="2"/><path class="cls-1" d="M218.39,157.51H179.33A11.52,11.52,0,0,0,167.84,169v5.24l-3.47,2-7.92,4.57,7.92,4.57,3.47,2v7.12A11.52,11.52,0,0,0,179.33,206h39.06a11.52,11.52,0,0,0,11.49-11.49V169A11.52,11.52,0,0,0,218.39,157.51Zm9.49,37a9.52,9.52,0,0,1-9.49,9.49H179.33a9.52,9.52,0,0,1-9.49-9.49v-8.27l-4.47-2.58-4.92-2.84,4.92-2.84,4.47-2.58V169a9.52,9.52,0,0,1,9.49-9.49h39.06a9.52,9.52,0,0,1,9.49,9.49Z"/><path class="cls-1" d="M165.86,140.65a28.5,28.5,0,1,0-28.5-28.5A28.53,28.53,0,0,0,165.86,140.65Zm0-55a26.5,26.5,0,1,1-26.5,26.5A26.53,26.53,0,0,1,165.86,85.65Z"/><path class="cls-1" d="M212.3,207.35c.17,2.33.28,4.66.3,7H119.12c.27-27.82,11.59-55.73,27.81-68.53a31.87,31.87,0,0,0,37.88,0,52.13,52.13,0,0,1,8.29,8.36h2.52a54.49,54.49,0,0,0-10.2-10.41l-.61-.46-.61.47a29.87,29.87,0,0,1-36.66,0l-.61-.47-.61.46c-17.19,13.08-29.2,42.52-29.2,71.59v1h97.5v-1q0-4-.3-8Z"/></g></svg>