<svg xmlns="http://www.w3.org/2000/svg" viewBox="0 0 300 300"><defs><style>.cls-1{fill:#231f20;}</style></defs><title>roshan-users</title><g id="users"><path class="cls-1" d="M149.71,140.65a28.5,28.5,0,1,0-28.5-28.5A28.53,28.53,0,0,0,149.71,140.65Zm0-55a26.5,26.5,0,1,1-26.5,26.5A26.53,26.53,0,0,1,149.71,85.65Z"/><path class="cls-1" d="M211.5,164.26a19.61,19.61,0,1,0-19.61-19.61A19.63,19.63,0,0,0,211.5,164.26Zm0-37.84a18.23,18.23,0,1,1-18.23,18.23A18.25,18.25,0,0,1,211.5,126.42Z"/><path class="cls-1" d="M88.5,164.26a19.61,19.61,0,1,0-19.61-19.61A19.63,19.63,0,0,0,88.5,164.26Zm0-37.84a18.23,18.23,0,1,1-18.23,18.23A18.25,18.25,0,0,1,88.5,126.42Z"/><path class="cls-1" d="M225,166.41l-.42-.32-.42.32a20.55,20.55,0,0,1-25.22,0l-.42-.32-.42.32a38.09,38.09,0,0,0-7.49,7.8c-5.16-12.91-12.56-23.8-21.3-30.45l-.61-.47-.61.47a29.87,29.87,0,0,1-36.66,0l-.61-.47-.61.47c-8.63,6.56-15.95,17.25-21.1,29.94a37.57,37.57,0,0,0-7.1-7.29l-.42-.32-.42.32a20.55,20.55,0,0,1-25.22,0l-.42-.32-.42.32C63.22,175.41,55,195.66,55,215.66v.69H100.1c0-.46,0-.92.08-1.38H56.34c.18-19.14,8-38.35,19.13-47.15a21.93,21.93,0,0,0,26.06,0,37.46,37.46,0,0,1,6.94,7.38A112.65,112.65,0,0,0,101,215.35v1h97.5v-1a112.72,112.72,0,0,0-7.3-39.63,38,38,0,0,1,7.32-7.9,21.93,21.93,0,0,0,26.06,0c11.15,8.81,18.95,28,19.13,47.15H199c0,.46.05.92.07,1.38H245v-.69C245,195.66,236.78,175.41,225,166.41ZM103,214.35c.27-27.82,11.59-55.73,27.81-68.53a31.87,31.87,0,0,0,37.88,0c16.21,12.8,27.54,40.72,27.81,68.53Z"/></g></svg>