<svg xmlns="http://www.w3.org/2000/svg" viewBox="0 0 300 300"><defs><style>.cls-1{fill:#231f20;}</style></defs><title>roshan-users</title><g id="user-star"><path class="cls-1" d="M145,140.65a28.5,28.5,0,1,0-28.5-28.5A28.53,28.53,0,0,0,145,140.65Zm0-55a26.5,26.5,0,1,1-26.5,26.5A26.53,26.53,0,0,1,145,85.65Z"/><path class="cls-1" d="M98.25,214.35c.27-27.82,11.59-55.73,27.81-68.53a31.87,31.87,0,0,0,37.88,0c5.82,4.59,11,11.14,15.27,18.92.59-.29,1.2-.56,1.82-.81-4.57-8.37-10.17-15.37-16.48-20.17l-.61-.47-.61.47a29.87,29.87,0,0,1-36.66,0l-.61-.47-.61.47c-17.19,13.08-29.2,42.52-29.2,71.59v1h75.06q-1-1-1.95-2Z"/><path class="cls-1" d="M203.76,185.91l-15.24-2.21-6.82-13.81-.9,1.82-5.92,12-15.24,2.21,11,10.75-2.6,15.18,13.63-7.17,13.63,7.17-2.6-15.18Zm-22.06,16.5-11,5.77,2.1-12.22-8.88-8.66,12.27-1.78,5.49-11.12,5.49,11.12,12.27,1.78L190.58,196l2.1,12.22Z"/></g></svg>