<svg xmlns="http://www.w3.org/2000/svg" viewBox="0 0 300 300"><defs><style>.cls-1{fill:#231f20;}</style></defs><title>roshan-users</title><g id="user-locked"><path class="cls-1" d="M143.81,140.65a28.5,28.5,0,1,0-28.5-28.5A28.53,28.53,0,0,0,143.81,140.65Zm0-55a26.5,26.5,0,1,1-26.5,26.5A26.53,26.53,0,0,1,143.81,85.65Z"/><path class="cls-1" d="M199.32,168A13.66,13.66,0,0,0,172,168a7,7,0,0,0-5.62,6.85v24.53a7,7,0,0,0,7,7h24.53a7,7,0,0,0,7-7V174.83A7,7,0,0,0,199.32,168Zm-21.89-7.37a11.68,11.68,0,0,1,19.88,7.23H174A11.65,11.65,0,0,1,177.43,160.6Zm25.51,38.75a5,5,0,0,1-5,5H173.41a5,5,0,0,1-5-5V174.83a5,5,0,0,1,5-5h24.53a5,5,0,0,1,5,5Z"/><path class="cls-1" d="M189.08,188.63a4.41,4.41,0,1,0-6.8,0l-1.65,8.28h10.11l-.24-1.2Zm-4.64-.63-.4-.38a2.4,2.4,0,1,1,3.28,0l-.41.38,1.38,6.91h-5.23Z"/><path class="cls-1" d="M190.42,209.92c.08,1.47.13,3,.14,4.43H97.07c.27-27.82,11.59-55.73,27.81-68.53a31.87,31.87,0,0,0,37.88,0,55.06,55.06,0,0,1,10.54,11.34l1.27-1.63a55.78,55.78,0,0,0-11.2-11.77l-.61-.46-.61.47a29.87,29.87,0,0,1-36.66,0l-.61-.47-.61.46c-17.19,13.08-29.2,42.52-29.2,71.59v1h97.5v-1q0-2.71-.14-5.43Z"/></g></svg>