<svg xmlns="http://www.w3.org/2000/svg" viewBox="0 0 300 300"><title>roshan-users</title><g id="user-talk"><path d="M140.86,140.65a28.5,28.5,0,1,0-28.5-28.5A28.53,28.53,0,0,0,140.86,140.65Zm0-55a26.5,26.5,0,1,1-26.5,26.5A26.53,26.53,0,0,1,140.86,85.65Z"/><path d="M187.3,207.35c.17,2.33.28,4.66.3,7H94.12c.27-27.82,11.59-55.73,27.81-68.53a31.87,31.87,0,0,0,37.88,0,52.13,52.13,0,0,1,8.29,8.36h2.52a54.49,54.49,0,0,0-10.2-10.41l-.61-.46-.61.47a29.87,29.87,0,0,1-36.66,0l-.61-.47-.61.46c-17.19,13.08-29.2,42.52-29.2,71.59v1h97.5v-1q0-4-.3-8Z"/><rect x="158.2" y="168.84" width="39.33" height="2"/><rect x="158.2" y="178.84" width="39.33" height="2"/><rect x="158.2" y="188.84" width="39.33" height="2"/><path d="M196.39,156.51H157.33A11.52,11.52,0,0,0,145.84,168v5.24l-3.47,2-7.92,4.57,7.92,4.57,3.47,2v7.12A11.52,11.52,0,0,0,157.33,205h39.06a11.52,11.52,0,0,0,11.49-11.49V168A11.52,11.52,0,0,0,196.39,156.51Zm9.49,37a9.52,9.52,0,0,1-9.49,9.49H157.33a9.52,9.52,0,0,1-9.49-9.49v-8.27l-4.47-2.58-4.92-2.84,4.92-2.84,4.47-2.58V168a9.52,9.52,0,0,1,9.49-9.49h39.06a9.52,9.52,0,0,1,9.49,9.49Z"/></g></svg>