<svg xmlns="http://www.w3.org/2000/svg" viewBox="0 0 300 300"><defs><style>.cls-1{fill:#231f20;}</style></defs><title>roshan-users</title><g id="user-group"><path class="cls-1" d="M149.71,150.44a28.5,28.5,0,1,0-28.5-28.5A28.53,28.53,0,0,0,149.71,150.44Zm0-55a26.5,26.5,0,1,1-26.5,26.5A26.53,26.53,0,0,1,149.71,95.45Z"/><path class="cls-1" d="M211.5,174.06a19.61,19.61,0,1,0-19.61-19.61A19.63,19.63,0,0,0,211.5,174.06Zm0-37.84a18.23,18.23,0,1,1-18.23,18.23A18.25,18.25,0,0,1,211.5,136.22Z"/><path class="cls-1" d="M88.5,174.06a19.61,19.61,0,1,0-19.61-19.61A19.63,19.63,0,0,0,88.5,174.06Zm0-37.84a18.23,18.23,0,1,1-18.23,18.23A18.25,18.25,0,0,1,88.5,136.22Z"/><path class="cls-1" d="M150,29A121,121,0,1,0,271,150,121.14,121.14,0,0,0,150,29Zm0,2a118.94,118.94,0,0,1,94.94,190.67c-1-18.72-8.9-37-20-45.47l-.42-.32-.42.32a20.55,20.55,0,0,1-25.22,0l-.42-.32-.42.32a38.11,38.11,0,0,0-7.49,7.8c-5.16-12.91-12.56-23.8-21.3-30.45l-.61-.47-.61.47a29.87,29.87,0,0,1-36.66,0l-.61-.47-.61.47c-8.63,6.56-15.95,17.25-21.1,29.94a37.57,37.57,0,0,0-7.1-7.29l-.42-.32-.42.32a20.55,20.55,0,0,1-25.22,0l-.42-.32-.42.32c-11.08,8.43-19,26.74-20,45.47A118.94,118.94,0,0,1,150,31Zm0,238a118.86,118.86,0,0,1-93.62-45.62c.54-18.67,8.21-37.17,19.1-45.76a21.93,21.93,0,0,0,26.06,0,37.47,37.47,0,0,1,6.94,7.38,112.72,112.72,0,0,0-7.5,39h2c.3-27.77,11.62-55.61,27.8-68.39a31.87,31.87,0,0,0,37.88,0c16.18,12.78,27.5,40.62,27.8,68.39h2a112.79,112.79,0,0,0-7.29-38.49,38,38,0,0,1,7.32-7.9,21.93,21.93,0,0,0,26.06,0c10.88,8.59,18.56,27.09,19.09,45.76A118.86,118.86,0,0,1,150,269Z"/></g></svg>