<svg xmlns="http://www.w3.org/2000/svg" viewBox="0 0 300 300"><defs><style>.cls-1{fill:#231f20;}</style></defs><title>roshan-users</title><g id="add-user"><path class="cls-1" d="M142.32,140.65a28.5,28.5,0,1,1,28.5-28.5A28.53,28.53,0,0,1,142.32,140.65Zm0-55a26.5,26.5,0,1,0,26.5,26.5A26.53,26.53,0,0,0,142.32,85.65Z"/><path class="cls-1" d="M95.58,214.35c.27-27.82,11.59-55.73,27.81-68.53a31.87,31.87,0,0,0,37.88,0c5.82,4.59,11,11.14,15.27,18.92.59-.29,1.2-.56,1.82-.81-4.57-8.37-10.17-15.37-16.48-20.17l-.61-.47-.61.47a29.87,29.87,0,0,1-36.66,0l-.61-.47-.61.47c-17.19,13.08-29.2,42.52-29.2,71.59v1h75.06q-1-1-1.95-2Z"/><polygon class="cls-1" points="182.85 176.28 180.85 176.28 180.85 190.28 167.35 190.28 167.35 192.28 180.85 192.28 180.85 206.28 182.85 206.28 182.85 192.28 197.35 192.28 197.35 190.28 182.85 190.28 182.85 176.28"/><path class="cls-1" d="M182.35,167.21a24.07,24.07,0,1,0,24.07,24.07A24.1,24.1,0,0,0,182.35,167.21Zm0,46.14a22.07,22.07,0,1,1,22.07-22.07A22.1,22.1,0,0,1,182.35,213.35Z"/></g></svg>