<svg id="user-unlocked" xmlns="http://www.w3.org/2000/svg" viewBox="0 0 300 300"><defs><style>.cls-1{fill:#231f20;}</style></defs><title>roshan-users</title><path class="cls-1" d="M142.31,140.65a28.5,28.5,0,1,0-28.5-28.5A28.53,28.53,0,0,0,142.31,140.65Zm0-55a26.5,26.5,0,1,1-26.5,26.5A26.53,26.53,0,0,1,142.31,85.65Z"/><path class="cls-1" d="M199.45,169.84H178.18a11.67,11.67,0,0,1,16.12-16.41l1.39-1.46a13.66,13.66,0,0,0-19.89,17.86h-.88a7,7,0,0,0-7,7v24.53a7,7,0,0,0,7,7h24.53a7,7,0,0,0,7-7V176.83A7,7,0,0,0,199.45,169.84Zm5,31.52a5,5,0,0,1-5,5H174.91a5,5,0,0,1-5-5V176.83a5,5,0,0,1,5-5h24.53a5,5,0,0,1,5,5Z"/><path class="cls-1" d="M191.58,189.63a4.36,4.36,0,0,0,1-2.76,4.41,4.41,0,1,0-8.81,0,4.36,4.36,0,0,0,1,2.76l-1.65,8.28h10.11l-.24-1.2Zm-6,6.28,1.38-6.91-.41-.38a2.41,2.41,0,1,1,3.28,0l-.41.38,1.38,6.91Z"/><path class="cls-1" d="M188.92,209.92c.08,1.47.13,3,.14,4.43H95.57c.27-27.82,11.59-55.73,27.81-68.53a31.87,31.87,0,0,0,37.88,0,55.06,55.06,0,0,1,10.54,11.34l1.27-1.63a55.76,55.76,0,0,0-11.2-11.77l-.61-.47-.61.47a29.87,29.87,0,0,1-36.66,0l-.61-.47-.61.47c-17.19,13.08-29.2,42.52-29.2,71.59v1h97.5v-1q0-2.71-.14-5.43Z"/></svg>